<?xml version="1.0" encoding="utf-8"?>
<!-- Generator: Adobe Illustrator 16.0.0, SVG Export Plug-In . SVG Version: 6.00 Build 0)  -->
<!DOCTYPE svg PUBLIC "-//W3C//DTD SVG 1.1//EN" "http://www.w3.org/Graphics/SVG/1.1/DTD/svg11.dtd">
<svg version="1.1" id="Layer_1" xmlns="http://www.w3.org/2000/svg" xmlns:xlink="http://www.w3.org/1999/xlink" x="0px" y="0px"
	 width="400px" height="124px" viewBox="0 121.5 400 124" enable-background="new 0 121.5 400 124" xml:space="preserve">
<path d="M56.65,201.79c2.286-3.2,3.658-7.316,3.658-12.803c0-5.487-1.372-9.603-3.658-12.803c-2.286-3.201-5.487-4.573-9.602-4.573
	c-4.116,0-7.316,1.372-9.603,4.573c-2.286,3.2-3.658,7.316-3.658,12.803c0,5.486,1.372,9.603,3.658,12.803
	c2.286,3.201,5.487,4.573,9.603,4.573C51.163,206.363,54.364,204.533,56.65,201.79 M63.052,209.105
	c-3.658,3.659-9.145,5.945-16.003,5.945c-6.859,0-12.347-1.829-16.004-5.945c-5.029-4.572-7.316-11.43-7.316-20.118
	c0-9.146,2.287-15.547,7.316-20.12c3.658-3.658,9.146-5.944,16.004-5.944c6.858,0,12.346,1.829,16.003,5.944
	c5.03,4.573,7.316,11.431,7.316,20.12C70.368,197.675,68.082,204.533,63.052,209.105"/>
<path d="M92.316,163.838c0.457,0,1.372,0,1.829,0v7.773c-0.458,0-1.372,0-2.744,0s-2.286,0.457-2.744,0.915
	c-0.457,0.457-0.915,1.371-0.915,1.829v3.201h6.402v6.858h-6.402v29.265h-9.603v-29.265h-4.573v-6.858h5.031v-2.286
	c0-3.659,0.457-6.402,1.829-8.231c1.372-2.286,4.572-3.2,10.059-3.2C91.402,163.838,91.859,163.838,92.316,163.838"/>
<path d="M115.179,163.838c0.458,0,1.372,0,1.829,0v7.773c-0.457,0-1.372,0-2.744,0c-1.371,0-2.286,0.457-2.743,0.915
	c-0.457,0.457-0.914,1.371-0.914,1.829v3.201h6.401v6.858h-6.401v29.265h-9.603v-29.265h-4.573v-6.858h5.03v-2.286
	c0-3.659,0.457-6.402,1.829-8.231c1.371-2.286,4.573-3.2,10.06-3.2C113.808,163.838,114.722,163.838,115.179,163.838"/>
<rect x="119.751" y="189.903" width="18.748" height="9.144"/>
<polygon points="152.674,164.295 159.076,192.646 160.447,200.418 161.819,192.646 167.763,164.295 178.28,164.295 184.225,192.646 
	185.597,200.418 186.968,192.646 193.827,164.295 204.344,164.295 190.168,213.222 180.566,213.222 174.622,184.871 172.793,175.27 
	170.964,184.871 165.477,213.222 155.875,213.222 141.7,164.295 "/>
<path d="M235.437,177.556c1.829,0.914,3.201,1.828,4.572,3.657c0.916,1.372,1.374,2.744,1.83,4.115c0,1.373,0.458,3.659,0.458,6.859
	v21.491h-9.604V191.73c0-1.827-0.457-3.658-0.914-4.572c-0.914-1.829-2.288-2.744-5.03-2.744c-2.285,0-4.572,0.915-5.486,2.287
	c-1.372,1.829-1.829,4.115-1.829,7.316v19.662h-9.603v-48.926h9.603v17.375c1.371-2.286,2.743-3.658,4.573-4.572
	c1.828-0.915,3.656-1.372,5.484-1.372C231.779,176.184,233.608,176.641,235.437,177.556"/>
<path d="M250.985,177.099h9.602v36.123h-9.602V177.099z M260.587,172.983h-9.602v-8.688h9.602V172.983z"/>
<path d="M266.074,184.414v-6.858h5.027v-10.06h9.146v10.06h5.944v6.858h-5.944v19.206c0,1.371,0,2.285,0.457,2.743
	c0.456,0.456,1.373,0.456,3.659,0.456c0.456,0,0.456,0,0.914,0c0.456,0,0.456,0,0.914,0v6.859h-4.571
	c-4.573,0-7.318-0.457-9.146-2.286c-0.914-0.915-1.373-2.744-1.373-5.029v-22.406L266.074,184.414L266.074,184.414z"/>
<path d="M302.196,186.245c-1.371,1.371-2.285,3.199-2.743,5.485h16.461c0-2.286-0.915-4.572-2.743-5.944
	c-1.372-1.372-3.2-1.829-5.487-1.829C305.398,183.957,303.568,184.871,302.196,186.245 M316.37,178.013
	c2.745,0.914,4.573,2.743,6.403,5.487c1.371,2.286,2.285,4.572,2.743,7.316c0.457,1.83,0.457,4.116,0.457,7.316h-26.521
	c0,3.658,1.372,6.401,3.657,7.773c1.372,0.914,3.202,1.373,5.03,1.373c2.285,0,4.116-0.459,5.03-1.831
	c0.914-0.456,1.371-1.371,1.828-2.284h9.604c-0.458,2.284-1.372,4.115-3.659,6.4c-3.199,3.658-7.772,5.487-13.717,5.487
	c-5.03,0-9.146-1.372-12.803-4.573c-3.659-2.744-5.486-7.772-5.486-14.632c0-6.402,1.827-10.975,5.029-14.632
	c3.199-3.2,7.772-5.029,12.803-5.029C310.884,176.184,313.628,176.641,316.37,178.013"/>
<polygon points="347.006,151.949 347.006,156.522 339.233,156.522 339.233,178.47 333.746,178.47 333.746,156.522 325.517,156.522 
	325.517,151.949 "/>
<path d="M368.04,151.949h8.232v26.521h-5.487v-17.833c0-0.458,0-1.372,0-2.286c0-0.915,0-1.829,0-2.286l-5.03,22.405h-5.487
	l-5.029-22.405c0,0.458,0,1.371,0,2.286c0,0.915,0,1.829,0,2.286v17.833h-5.03v-26.521h8.231l5.029,21.034L368.04,151.949z"/>
</svg>
